
<svg
    data-v-73fdaaa2=""
    version="1.0"
    xmlns="http://www.w3.org/2000/svg"
    xmlns:xlink="http://www.w3.org/1999/xlink"
    width="100%"
    height="100%"
    viewbox="0 0 340.000000 250.000000"
    preserveaspectratio="xMidYMid meet"
    color-interpolation-filters="sRGB"
    class="logo"
    style="margin: auto;">
    <g data-v-73fdaaa2="" id="logo" fill="aqua" class="bordersvg" transform="translate(131.06999969482422,88.13999938964844)" style="fill: aqua;">
        <polyline stroke="aqua" stroke-width="3" fill-opacity="0" points="4.1399993896484375,20 4.1399993896484375,10 67.86000061035156,10 67.86000061035156,20"></polyline>
        <polyline stroke="aqua" stroke-width="3" fill-opacity="0" points="4.1399993896484375,63.720001220703125 4.1399993896484375,73.72000122070312 67.86000061035156,73.72000122070312 67.86000061035156,63.720001220703125"></polyline>
        <polyline stroke="aqua" stroke-width="3" fill-opacity="0" points="14.139999389648438,10 14.139999389648438,0 77.86000061035156,0 77.86000061035156,20"></polyline>
        <polyline stroke="aqua" stroke-width="3" fill-opacity="0" points="67.86000061035156,68.72000122070312 77.86000061035156,68.72000122070312 77.86000061035156,63.720001220703125"></polyline>
        <g transform="translate(0,20)">
            <rect stroke-width="2" x="0" y="0" width="72" height="43.720001220703125" fill-opacity="0"></rect>
            <!---->
            <!---->
            <g transform="translate(0,3)">
                <g class="tp-name">
                    <g>
                        <path
                            transform="translate(-4.52,33)"
                            d="M24.08-19.76L24.08-23.24L16.60-23.24L16.60-24.60L24.08-24.60L24.08-27.60L15.84-27.60L15.84-29.04L24.08-29.04L24.08-33L25.52-33L25.52-29.04L34.32-29.04L34.32-27.60L25.52-27.60L25.52-24.60L32.88-24.60L32.88-23.24L25.52-23.24L25.52-19.76L35.56-19.76L35.56-18.36L14.76-18.36L14.76-19.76L24.08-19.76ZM31.40 2.56L31.40-14.28L18.64-14.28L18.64 4.72L17.16 4.72L17.16-15.72L32.96-15.72L32.96 4L26.36 4L26.36 2.56L31.40 2.56ZM29.80-9.60L20.20-9.60L20.20-11.04L29.80-11.04L29.80-9.60ZM29.80-5.24L20.20-5.24L20.20-6.64L29.80-6.64L29.80-5.24ZM13.72-1.80L4.52-1.80L4.52-3.24L13.72-3.24L13.72-1.80ZM13.28-27.56L4.68-27.56L4.68-29L13.28-29L13.28-27.56ZM13-17.68L4.72-17.68L4.72-19.12L13-19.12L13-17.68ZM43.12 4.08L43.12 2.68L47.96 2.68L47.96-29.72L71.72-29.72L71.72 2.56L76.52 2.56L76.52 4L70.20 4L70.20-28.32L49.44-28.32L49.44 4.08L43.12 4.08ZM63.24-25.28L64.68-25.28L64.68-8.52L68.84-8.52L68.84-7.12L64.68-7.12L64.68 2.16L53.36 2.16L53.36 0.72L63.24 0.72L63.24-7.12L53.68-7.12L53.68-24.64L55.08-24.64L55.08-8.52L63.24-8.52L63.24-25.28Z"></path>
                    </g>
                    <!---->
                    <!---->
                    <!---->
                    <!---->
                    <!---->
                    <!---->
                    <!---->
                </g>
                <!---->
            </g>
        </g>
    </g>
</svg>